<?xml version="1.0" standalone="no"?>
<!DOCTYPE svg PUBLIC "-//W3C//DTD SVG 20010904//EN"
 "http://www.w3.org/TR/2001/REC-SVG-20010904/DTD/svg10.dtd">
<svg version="1.0" xmlns="http://www.w3.org/2000/svg"
 width="143.000000pt" height="162.000000pt" viewBox="0 0 143.000000 162.000000"
 preserveAspectRatio="xMidYMid meet">
<g transform="translate(0.000000,162.000000) scale(0.100000,-0.100000)"
fill="#000000" stroke="none">
<path d="M680 1555 c-25 -7 -135 -36 -245 -65 -110 -28 -224 -58 -252 -66
l-53 -15 0 -542 0 -542 128 -127 127 -126 378 5 378 6 109 123 110 123 0 544
0 544 -207 51 c-340 84 -416 102 -422 101 -3 -1 -26 -7 -51 -14z m50 -195 l0
-190 -173 0 -172 0 -114 114 c-93 93 -110 115 -95 120 11 3 136 35 279 72 143
36 262 68 264 70 2 2 6 4 8 4 2 0 3 -85 3 -190z m325 113 c148 -36 272 -67
274 -69 2 -2 -43 -55 -99 -118 l-102 -116 -189 0 -189 0 0 191 c0 177 1 191
17 185 10 -4 139 -37 288 -73z m-682 -696 c1 -207 1 -377 0 -377 -2 0 -52 -13
-113 -29 l-110 -29 0 517 0 518 110 -112 110 -112 3 -376z m969 88 c-1 -283
-6 -515 -10 -514 -4 0 -47 11 -97 23 l-90 23 -2 379 -2 379 97 112 c53 61 99
112 102 112 3 1 4 -231 2 -514z m-612 -44 l0 -328 -27 -6 c-16 -4 -88 -22
-161 -42 -73 -19 -137 -35 -143 -35 -5 0 -9 144 -9 370 l0 370 170 0 170 0 0
-329z m390 -45 l0 -375 -47 13 c-27 8 -110 29 -185 47 l-138 33 0 328 0 328
185 0 185 0 0 -374z m-189 -346 c96 -23 177 -44 182 -47 4 -2 7 -67 7 -144 l0
-139 -147 0 c-82 0 -246 -3 -365 -7 l-218 -6 0 150 0 150 108 27 c59 15 136
35 172 45 36 11 70 17 76 16 7 -2 90 -22 185 -45z m-556 -185 c0 -74 -1 -135
-3 -135 -11 0 -208 216 -199 218 7 2 50 14 97 27 47 13 90 24 95 24 6 1 10
-50 10 -134z m865 109 c36 -8 71 -17 78 -19 14 -5 -11 -36 -132 -170 l-45 -50
-1 134 c0 123 1 133 18 126 9 -3 46 -13 82 -21z"/>
<path d="M90 1456 c0 -2 8 -10 18 -17 15 -13 16 -12 3 4 -13 16 -21 21 -21 13z"/>
<path d="M1167 49 c7 -7 15 -10 18 -7 3 3 -2 9 -12 12 -14 6 -15 5 -6 -5z"/>
</g>
</svg>
