<?xml version="1.0" standalone="no"?>
<!DOCTYPE svg PUBLIC "-//W3C//DTD SVG 20010904//EN"
 "http://www.w3.org/TR/2001/REC-SVG-20010904/DTD/svg10.dtd">
<svg version="1.0" xmlns="http://www.w3.org/2000/svg"
 width="149.000000pt" height="73.000000pt" viewBox="0 0 149.000000 73.000000"
 preserveAspectRatio="xMidYMid meet">
<g transform="translate(0.000000,73.000000) scale(0.100000,-0.100000)"
fill="#000000" stroke="none">
<path d="M1040 713 c-19 -2 -145 -19 -280 -38 -135 -20 -263 -37 -285 -40 -22
-2 -115 -14 -207 -26 l-168 -22 0 -36 c0 -20 -3 -122 -6 -227 -5 -152 -3 -192
8 -201 12 -9 90 -35 248 -80 54 -16 63 -15 320 20 146 21 366 51 490 67 123
17 228 34 232 38 5 5 7 109 6 232 l-3 223 -115 39 c-152 51 -181 57 -240 51z
m50 -68 c0 -49 -3 -55 -22 -60 -13 -2 -135 -19 -273 -36 -137 -17 -281 -36
-320 -43 -68 -11 -73 -11 -165 20 -52 17 -113 34 -135 39 -38 7 -39 8 -14 15
15 4 73 13 130 19 94 11 524 66 689 89 117 17 110 19 110 -43z m130 21 c146
-42 145 -41 39 -55 -51 -6 -108 -14 -125 -17 l-30 -5 0 55 c1 45 4 55 16 51 8
-2 53 -16 100 -29z m160 -272 c0 -200 -1 -215 -17 -211 -10 3 -73 22 -140 43
l-123 38 0 158 c0 144 2 158 18 159 9 0 60 6 112 13 52 8 107 14 123 15 l27 1
0 -216z m-1165 146 c38 -11 93 -28 120 -39 l50 -19 3 -156 c1 -86 -1 -156 -6
-156 -10 0 -203 -27 -244 -35 l-28 -5 0 221 c0 205 1 221 17 215 10 -4 49 -16
88 -26z m873 -122 l-3 -153 -90 -12 c-49 -7 -151 -21 -225 -32 -74 -11 -162
-23 -195 -26 -75 -7 -135 -15 -157 -21 -17 -5 -18 7 -18 150 l0 155 33 6 c103
17 307 45 370 51 39 3 106 12 147 19 41 7 90 13 108 14 l33 1 -3 -152z m117
-203 c61 -19 119 -35 130 -35 57 -1 -28 -19 -190 -39 -99 -13 -294 -38 -433
-57 -139 -19 -266 -34 -283 -34 -29 0 -29 1 -29 54 l0 54 47 6 c27 3 165 21
308 41 143 19 274 36 290 38 17 2 35 5 40 5 6 1 60 -14 120 -33z m-815 -110
c0 -30 -4 -55 -10 -55 -10 0 -191 55 -220 67 -8 4 37 14 100 23 63 10 118 18
123 19 4 0 7 -24 7 -54z"/>
</g>
</svg>
