<?xml version="1.0" standalone="no"?>
<!DOCTYPE svg PUBLIC "-//W3C//DTD SVG 20010904//EN"
 "http://www.w3.org/TR/2001/REC-SVG-20010904/DTD/svg10.dtd">
<svg version="1.0" xmlns="http://www.w3.org/2000/svg"
 width="80.000000pt" height="101.000000pt" viewBox="0 0 80.000000 101.000000"
 preserveAspectRatio="xMidYMid meet">
<g transform="translate(0.000000,101.000000) scale(0.100000,-0.100000)"
fill="#000000" stroke="none">
<path d="M250 874 c-80 -53 -146 -97 -146 -98 -1 0 -5 -162 -9 -358 l-7 -358
309 0 310 0 6 352 c6 328 6 354 -11 369 -19 18 -269 175 -292 184 -9 3 -76
-35 -160 -91z m142 -9 l-3 -85 -127 0 -127 0 125 84 c69 47 127 85 130 85 3 1
4 -37 2 -84z m263 -66 l30 -19 -137 0 -138 0 0 85 0 85 108 -66 c59 -37 121
-75 137 -85z m-265 -215 c0 -100 -3 -215 -6 -256 l-7 -74 -130 -85 c-72 -46
-133 -85 -136 -87 -6 -2 -3 656 3 673 2 6 58 10 140 10 l136 0 0 -181z m309
-162 c-1 -188 -5 -342 -8 -342 -3 0 -69 40 -146 89 l-140 88 0 249 c0 137 0
251 1 254 1 3 68 5 149 5 l146 0 -2 -343z m-165 -262 l137 -85 -136 -3 c-74
-1 -197 -1 -272 0 l-136 3 129 86 c71 47 132 86 135 85 4 -1 68 -39 143 -86z"/>
</g>
</svg>
