<?xml version="1.0" standalone="no"?>
<!DOCTYPE svg PUBLIC "-//W3C//DTD SVG 20010904//EN"
 "http://www.w3.org/TR/2001/REC-SVG-20010904/DTD/svg10.dtd">
<svg version="1.0" xmlns="http://www.w3.org/2000/svg"
 width="112.000000pt" height="152.000000pt" viewBox="0 0 112.000000 152.000000"
 preserveAspectRatio="xMidYMid meet">
<g transform="translate(0.000000,152.000000) scale(0.100000,-0.100000)"
fill="#000000" stroke="none">
<path d="M553 1404 c3 -4 -2 -23 -13 -44 -19 -37 -79 -174 -240 -550 -49 -113
-125 -288 -169 -389 -45 -102 -78 -188 -74 -192 5 -4 26 -12 48 -18 22 -5 143
-40 269 -77 l229 -67 46 17 c25 9 127 48 227 87 l181 71 -37 92 c-21 50 -61
147 -89 216 -54 130 -135 328 -251 610 -95 233 -103 250 -119 250 -8 0 -12 -3
-8 -6z m12 -177 c1 -181 14 -760 21 -879 l6 -97 -256 -3 c-141 -2 -256 -1
-256 2 0 3 21 52 46 110 91 208 112 257 163 375 28 66 58 134 65 150 8 17 24
50 34 75 38 88 140 326 155 363 9 20 17 37 19 37 2 0 3 -60 3 -133z m48 43
c14 -36 44 -110 67 -165 87 -209 183 -441 196 -475 7 -19 44 -109 82 -200 l70
-165 -206 -8 c-112 -4 -206 -6 -207 -5 -3 3 -12 275 -20 603 -3 116 -8 273
-10 349 -3 77 -3 138 -1 135 2 -2 16 -33 29 -69z m362 -1039 c-11 -5 -92 -37
-180 -71 -88 -34 -166 -64 -172 -67 -10 -4 -13 13 -13 65 l0 71 68 3 c175 8
316 7 297 -1z m-383 -71 c2 -39 1 -70 0 -70 -8 0 -429 123 -447 130 -11 5 80
9 212 9 l231 1 4 -70z"/>
</g>
</svg>
