<?xml version="1.0" standalone="no"?>
<!DOCTYPE svg PUBLIC "-//W3C//DTD SVG 20010904//EN"
 "http://www.w3.org/TR/2001/REC-SVG-20010904/DTD/svg10.dtd">
<svg version="1.0" xmlns="http://www.w3.org/2000/svg"
 width="124.000000pt" height="166.000000pt" viewBox="0 0 124.000000 166.000000"
 preserveAspectRatio="xMidYMid meet">
<g transform="translate(0.000000,166.000000) scale(0.100000,-0.100000)"
fill="#000000" stroke="none">
<path d="M545 1578 c-3 -7 -38 -103 -79 -213 -99 -268 -237 -641 -294 -795
-25 -69 -72 -195 -103 -280 -32 -85 -56 -156 -55 -158 2 -2 195 -19 429 -39
l426 -36 79 69 c43 38 118 102 165 143 l87 73 -275 542 c-352 693 -359 706
-368 706 -4 0 -10 -6 -12 -12z m25 -86 c0 -27 204 -1061 215 -1090 4 -11 -4
-13 -32 -8 -21 3 -114 10 -208 17 -93 7 -173 15 -177 18 -3 3 25 177 63 386
38 209 78 430 89 490 11 61 22 134 26 163 7 55 24 72 24 24z m171 -294 c196
-391 409 -810 422 -825 6 -9 5 -13 -4 -13 -37 0 -343 31 -347 35 -3 2 -51 237
-109 522 -57 285 -107 533 -112 551 -5 17 -8 32 -5 32 2 0 72 -136 155 -302z
m-221 217 c-10 -41 -104 -558 -170 -927 l-12 -67 -116 -98 c-63 -54 -126 -109
-139 -122 -27 -26 -40 -23 -25 6 6 10 26 63 47 118 20 55 45 123 55 150 11 28
49 131 86 230 36 99 95 259 131 355 36 96 78 213 94 260 39 112 51 141 55 138
1 -2 -1 -21 -6 -43z m80 -1031 c102 -9 186 -17 187 -18 2 -1 14 -59 28 -128
13 -69 27 -133 31 -142 6 -16 2 -17 -37 -12 -77 11 -509 47 -632 53 -65 3
-116 10 -115 14 2 5 66 63 143 129 162 138 121 128 395 104z m403 -35 l158
-12 -38 -31 c-21 -17 -86 -73 -146 -124 -64 -55 -109 -87 -111 -80 -2 7 -14
64 -26 127 -12 62 -24 120 -27 128 -4 11 -1 14 13 10 10 -3 90 -11 177 -18z"/>
</g>
</svg>
