<?xml version="1.0" standalone="no"?>
<!DOCTYPE svg PUBLIC "-//W3C//DTD SVG 20010904//EN"
 "http://www.w3.org/TR/2001/REC-SVG-20010904/DTD/svg10.dtd">
<svg version="1.0" xmlns="http://www.w3.org/2000/svg"
 width="112.000000pt" height="154.000000pt" viewBox="0 0 112.000000 154.000000"
 preserveAspectRatio="xMidYMid meet">
<g transform="translate(0.000000,154.000000) scale(0.100000,-0.100000)"
fill="#000000" stroke="none">
<path d="M507 1338 c-30 -73 -103 -250 -162 -393 -59 -143 -131 -316 -160
-385 -108 -259 -145 -350 -145 -357 0 -4 49 -41 108 -81 l107 -72 322 0 322 0
88 66 c48 37 94 72 101 79 10 9 0 42 -54 171 -36 87 -74 179 -84 204 -10 25
-66 162 -125 305 -59 143 -138 334 -175 425 -37 90 -72 166 -77 167 -6 2 -35
-56 -66 -129z m93 -18 c13 -69 210 -920 233 -1007 8 -29 12 -53 8 -53 -3 0
-65 9 -138 22 l-131 22 5 535 c4 391 2 533 -6 526 -7 -7 -11 -143 -12 -445 -1
-239 -4 -476 -6 -526 l-5 -91 -116 -21 c-64 -12 -117 -20 -119 -18 -2 1 26
133 62 292 132 583 175 782 175 801 0 22 21 46 31 36 3 -5 12 -37 19 -73z
m-86 -70 c-14 -58 -63 -274 -109 -480 -46 -206 -91 -407 -100 -446 l-16 -71
-111 -17 c-61 -9 -112 -15 -113 -14 -1 2 65 163 147 358 167 400 235 565 286
693 19 48 36 87 37 85 2 -2 -8 -50 -21 -108z m124 40 c21 -56 148 -367 332
-813 56 -136 101 -250 99 -251 -2 -2 -50 3 -106 12 l-101 15 -7 36 c-10 55
-212 916 -235 1000 -22 84 -13 84 18 1z m227 -1119 c9 -36 18 -74 21 -83 5
-17 -14 -18 -305 -18 -171 0 -311 3 -311 8 0 4 8 42 17 84 l17 76 96 17 c52 9
110 20 129 24 20 4 90 -3 176 -18 l143 -24 17 -66z m-596 -12 c-10 -39 -19
-72 -21 -74 -2 -2 -43 22 -91 55 l-87 58 103 19 c56 11 105 18 108 17 3 -2 -2
-35 -12 -75z m791 41 c0 -3 -35 -31 -78 -63 l-77 -58 -11 45 c-6 24 -14 59
-18 78 l-6 33 95 -15 c52 -8 95 -17 95 -20z"/>
</g>
</svg>
